<svg width="51" height="51" viewBox="0 0 51 51" fill="none" xmlns="http://www.w3.org/2000/svg">
<g clip-path="url(#clip0_778_119845)">
<path d="M43.383 41.1749C23.1431 50.8074 10.582 42.7482 2.5412 37.8531C2.04364 37.5446 1.19797 37.9253 1.93171 38.7681C4.61049 42.0161 13.3894 49.845 24.8485 49.845C36.3154 49.845 43.1372 43.5881 43.9906 42.4966C44.8382 41.4143 44.2394 40.8173 43.3828 41.1749H43.383ZM49.0673 38.0357C48.5238 37.3279 45.7623 37.196 44.0244 37.4094C42.2838 37.6168 39.6712 38.6806 39.8983 39.3193C40.0149 39.5585 40.2528 39.4512 41.4485 39.3437C42.6475 39.2241 46.0064 38.8002 46.7063 39.7151C47.4094 40.6364 45.635 45.025 45.3109 45.7327C44.9978 46.4405 45.4305 46.623 46.0187 46.1516C46.5988 45.6804 47.6489 44.4601 48.3536 42.7332C49.0535 40.9968 49.4803 38.5746 49.0671 38.0357H49.0673Z" fill="#FF9900"/>
<path fill-rule="evenodd" clip-rule="evenodd" d="M29.7739 21.5201C29.7739 24.0475 29.8378 26.1553 28.5603 28.3998C27.5293 30.2248 25.896 31.347 24.0711 31.347C21.5801 31.347 20.1293 29.4491 20.1293 26.648C20.1293 21.1185 25.0838 20.1149 29.7739 20.1149V21.5201ZM36.3161 37.3327C35.8872 37.7159 35.2667 37.7434 34.7832 37.4878C32.6299 35.6995 32.2465 34.8692 31.0604 33.1628C27.5019 36.7944 24.9836 37.8801 20.3667 37.8801C14.9102 37.8801 10.6582 34.5132 10.6582 27.7703C10.6582 22.5056 13.5143 18.9196 17.5744 17.1678C21.0966 15.6165 26.0146 15.3428 29.7739 14.9141V14.0746C29.7739 12.5325 29.8924 10.7076 28.9892 9.37556C28.1953 8.18023 26.6807 7.68748 25.3484 7.68748C22.8758 7.68748 20.6677 8.9557 20.1293 11.5835C20.0197 12.1676 19.591 12.7425 19.0071 12.7698L12.7111 12.0947C12.182 11.9759 11.5981 11.5472 11.7441 10.735C13.1949 3.10712 20.0836 0.807617 26.2516 0.807617C29.4087 0.807617 33.5329 1.64714 36.0239 4.03781C39.181 6.98489 38.8798 10.9175 38.8798 15.1968V25.3067C38.8798 28.3451 40.139 29.6772 41.3251 31.3197C41.7448 31.9036 41.8361 32.6064 41.3069 33.0442C39.9838 34.1481 37.6297 36.2013 36.3341 37.351L36.3159 37.3327" fill="black"/>
<path d="M43.383 41.1749C23.1431 50.8074 10.582 42.7482 2.5412 37.8531C2.04364 37.5446 1.19797 37.9253 1.93171 38.7681C4.61049 42.0161 13.3894 49.845 24.8485 49.845C36.3154 49.845 43.1372 43.5881 43.9906 42.4966C44.8382 41.4143 44.2394 40.8173 43.3828 41.1749H43.383ZM49.0673 38.0357C48.5238 37.3279 45.7623 37.196 44.0244 37.4094C42.2838 37.6168 39.6712 38.6806 39.8983 39.3193C40.0149 39.5585 40.2528 39.4512 41.4485 39.3437C42.6475 39.2241 46.0064 38.8002 46.7063 39.7151C47.4094 40.6364 45.635 45.025 45.3109 45.7327C44.9978 46.4405 45.4305 46.623 46.0187 46.1516C46.5988 45.6804 47.6489 44.4601 48.3536 42.7332C49.0535 40.9968 49.4803 38.5746 49.0671 38.0357H49.0673Z" fill="#FF9900"/>
<path fill-rule="evenodd" clip-rule="evenodd" d="M29.7739 21.5201C29.7739 24.0475 29.8378 26.1553 28.5603 28.3998C27.5293 30.2248 25.896 31.347 24.0711 31.347C21.5801 31.347 20.1293 29.4491 20.1293 26.648C20.1293 21.1185 25.0838 20.1149 29.7739 20.1149V21.5201ZM36.3161 37.3327C35.8872 37.7159 35.2667 37.7434 34.7832 37.4878C32.6299 35.6995 32.2465 34.8692 31.0604 33.1628C27.5019 36.7944 24.9836 37.8801 20.3667 37.8801C14.9102 37.8801 10.6582 34.5132 10.6582 27.7703C10.6582 22.5056 13.5143 18.9196 17.5744 17.1678C21.0966 15.6165 26.0146 15.3428 29.7739 14.9141V14.0746C29.7739 12.5325 29.8924 10.7076 28.9892 9.37556C28.1953 8.18023 26.6807 7.68748 25.3484 7.68748C22.8758 7.68748 20.6677 8.9557 20.1293 11.5835C20.0197 12.1676 19.591 12.7425 19.0071 12.7698L12.7111 12.0947C12.182 11.9759 11.5981 11.5472 11.7441 10.735C13.1949 3.10712 20.0836 0.807617 26.2516 0.807617C29.4087 0.807617 33.5329 1.64714 36.0239 4.03781C39.181 6.98489 38.8798 10.9175 38.8798 15.1968V25.3067C38.8798 28.3451 40.139 29.6772 41.3251 31.3197C41.7448 31.9036 41.8361 32.6064 41.3069 33.0442C39.9838 34.1481 37.6297 36.2013 36.3341 37.351L36.3159 37.3327" fill="black"/>
</g>
<defs>
<clipPath id="clip0_778_119845">
<rect width="50" height="50" fill="white" transform="translate(0.339844 0.807617)"/>
</clipPath>
</defs>
</svg>
