<svg width="24" height="24" viewBox="0 0 24 24" fill="none" xmlns="http://www.w3.org/2000/svg">
<path d="M10.4004 7.5C10.4004 5.84315 9.05724 4.5 7.40039 4.5C5.74354 4.5 4.40039 5.84315 4.40039 7.5C4.40039 9.15685 5.74354 10.5 7.40039 10.5C9.05724 10.5 10.4004 9.15685 10.4004 7.5Z" stroke="#FAFAFA" stroke-width="1.5" stroke-linecap="round" stroke-linejoin="round"/>
<path d="M8.90039 13.5H5.90039C5.07196 13.5 4.40039 14.1716 4.40039 15V18C4.40039 18.8284 5.07196 19.5 5.90039 19.5H8.90039C9.72882 19.5 10.4004 18.8284 10.4004 18V15C10.4004 14.1716 9.72882 13.5 8.90039 13.5Z" stroke="#FAFAFA" stroke-width="1.5" stroke-linecap="round" stroke-linejoin="round"/>
<path d="M19.4004 16.5C19.4004 14.8431 18.0572 13.5 16.4004 13.5C14.7435 13.5 13.4004 14.8431 13.4004 16.5C13.4004 18.1569 14.7435 19.5 16.4004 19.5C18.0572 19.5 19.4004 18.1569 19.4004 16.5Z" stroke="#FAFAFA" stroke-width="1.5" stroke-linecap="round" stroke-linejoin="round"/>
<path d="M16.5004 4.63965L13.4004 9.99965H19.6004L16.5004 4.63965Z" stroke="#FAFAFA" stroke-width="1.5" stroke-linecap="round" stroke-linejoin="round"/>
</svg>
