<svg width="31" height="31" viewBox="0 0 31 31" fill="none" xmlns="http://www.w3.org/2000/svg">
<circle cx="15.5" cy="15.5" r="15.5" fill="#EDF0F4"/>
<path fill-rule="evenodd" clip-rule="evenodd" d="M24.3136 15.2527L23.7651 14.7025L15.5933 6.45898L7.41866 14.7025L6.7168 15.4103L6.97041 15.6304C7.25647 15.8712 7.55137 16.1002 7.85512 16.3143C11.0872 18.6102 15.095 19.3031 18.796 18.3901C20.3059 18.0213 21.7391 17.3879 23.0337 16.5195C23.3551 16.3054 23.6677 16.0735 23.9744 15.8296C24.1425 15.6928 24.3077 15.553 24.4699 15.4103L24.3136 15.2527ZM20.0701 19.889L15.5935 24.4033L13.3729 22.164C15.7675 22.0213 18.0795 21.2362 20.0701 19.889ZM9.64222 15.0327C12.5028 15.0208 15.3102 15.8148 17.7491 17.3255C19.3091 17.046 20.8013 16.4602 22.1372 15.6037C17.9437 13.1711 13.3698 13.3941 9.64222 15.0327Z" fill="#2B71FF"/>
</svg>
