<svg width="51" height="40" viewBox="0 0 51 40" fill="none" xmlns="http://www.w3.org/2000/svg">
<g clip-path="url(#clip0_778_119935)">
<path d="M42.6658 3.69501C39.4313 2.18053 35.9729 1.07981 32.3574 0.453125C31.9132 1.25656 31.3945 2.33719 31.0369 3.19687C27.1934 2.6184 23.3852 2.6184 19.6124 3.19687C19.2548 2.33719 18.7242 1.25656 18.2763 0.453125C14.6567 1.07981 11.1944 2.18454 7.96005 3.70304C1.43627 13.5693 -0.332221 23.1905 0.552025 32.6751C4.87894 35.9089 9.07223 37.8733 13.1948 39.1588C14.2126 37.7568 15.1205 36.2665 15.9026 34.6957C14.4131 34.1293 12.9865 33.4304 11.6385 32.6188C11.9961 32.3538 12.3459 32.0765 12.6839 31.7914C20.9055 35.6397 29.8382 35.6397 37.9616 31.7914C38.3034 32.0765 38.6532 32.3538 39.0069 32.6188C37.655 33.4343 36.2245 34.1333 34.735 34.6997C35.5171 36.2665 36.421 37.7609 37.4427 39.1628C41.5692 37.8773 45.7665 35.913 50.0934 32.6751C51.131 21.6801 48.321 12.1472 42.6658 3.69501ZM17.0226 26.8422C14.5546 26.8422 12.5306 24.5362 12.5306 21.7283C12.5306 18.9202 14.5113 16.6104 17.0226 16.6104C19.5339 16.6104 21.5577 18.9162 21.5145 21.7283C21.5186 24.5362 19.5339 26.8422 17.0226 26.8422ZM33.6229 26.8422C31.1548 26.8422 29.1308 24.5362 29.1308 21.7283C29.1308 18.9202 31.1116 16.6104 33.6229 16.6104C36.134 16.6104 38.1581 18.9162 38.1148 21.7283C38.1148 24.5362 36.134 26.8422 33.6229 26.8422Z" fill="#5865F2"/>
</g>
<defs>
<clipPath id="clip0_778_119935">
<rect width="50" height="38.7097" fill="white" transform="translate(0.339844 0.453125)"/>
</clipPath>
</defs>
</svg>
