<svg width="22" height="22" viewBox="0 0 22 22" fill="none" xmlns="http://www.w3.org/2000/svg">
<path d="M22 11C22 17.0751 17.0751 22 11 22C15.1311 22 18.48 18.6511 18.48 14.52C18.48 10.3889 15.1311 7.04 11 7.04C6.86891 7.04 3.52 10.3889 3.52 14.52C3.52 18.6511 6.86891 22 11 22C4.92487 22 0 17.0751 0 11C0 4.92487 4.92487 0 11 0C17.0751 0 22 4.92487 22 11Z" fill="white"/>
<path d="M11 22C8.08394 22 5.72 19.6361 5.72 16.72C5.72 13.8039 8.08394 11.44 11 11.44C13.9161 11.44 16.28 13.8039 16.28 16.72C16.28 19.6361 13.9161 22 11 22Z" fill="white"/>
</svg>
