<svg width="18" height="18" viewBox="0 0 18 18" fill="none" xmlns="http://www.w3.org/2000/svg">
<g clip-path="url(#clip0_427_795)">
<path d="M9.07752 0.269531C4.3619 0.269531 0.539062 4.09237 0.539062 8.80799C0.539062 12.8122 3.29596 16.1722 7.01497 17.0951V11.4173H5.25434V8.80799H7.01497V7.68365C7.01497 4.7775 8.33024 3.43047 11.1834 3.43047C11.7244 3.43047 12.6579 3.53669 13.0397 3.64257V6.00772C12.8382 5.98654 12.4881 5.97596 12.0533 5.97596C10.6534 5.97596 10.1124 6.50637 10.1124 7.88516V8.80799H12.9014L12.4222 11.4173H10.1124V17.284C14.3403 16.7734 17.6163 13.1735 17.6163 8.80799C17.616 4.09237 13.7931 0.269531 9.07752 0.269531Z" fill="#F9F9F9"/>
</g>
<defs>
<clipPath id="clip0_427_795">
<rect width="17.0769" height="17.0769" fill="white" transform="translate(0.539062 0.269531)"/>
</clipPath>
</defs>
</svg>
