<svg width="34" height="51" viewBox="0 0 34 51" fill="none" xmlns="http://www.w3.org/2000/svg">
<g clip-path="url(#clip0_778_119936)">
<path d="M8.33724 50.8073C12.9372 50.8073 16.6706 47.074 16.6706 42.474V34.1406H8.33724C3.73724 34.1406 0.00390625 37.874 0.00390625 42.474C0.00390625 47.074 3.73724 50.8073 8.33724 50.8073Z" fill="#0ACF83"/>
<path d="M0.00390625 25.8079C0.00390625 21.2079 3.73724 17.4746 8.33724 17.4746H16.6706V34.1413H8.33724C3.73724 34.1413 0.00390625 30.4079 0.00390625 25.8079Z" fill="#A259FF"/>
<path d="M0.00390625 9.14095C0.00390625 4.54095 3.73724 0.807617 8.33724 0.807617H16.6706V17.4743H8.33724C3.73724 17.4743 0.00390625 13.7409 0.00390625 9.14095Z" fill="#F24E1E"/>
<path d="M16.6699 0.807617H25.0033C29.6033 0.807617 33.3366 4.54095 33.3366 9.14095C33.3366 13.7409 29.6033 17.4743 25.0033 17.4743H16.6699V0.807617Z" fill="#FF7262"/>
<path d="M33.3366 25.8079C33.3366 30.4079 29.6033 34.1413 25.0033 34.1413C20.4033 34.1413 16.6699 30.4079 16.6699 25.8079C16.6699 21.2079 20.4033 17.4746 25.0033 17.4746C29.6033 17.4746 33.3366 21.2079 33.3366 25.8079Z" fill="#1ABCFE"/>
</g>
<defs>
<clipPath id="clip0_778_119936">
<rect width="33.34" height="50" fill="white" transform="translate(0 0.807617)"/>
</clipPath>
</defs>
</svg>
