<svg width="50" height="51" viewBox="0 0 50 51" fill="none" xmlns="http://www.w3.org/2000/svg">
<g clip-path="url(#clip0_778_119938)">
<path fill-rule="evenodd" clip-rule="evenodd" d="M25 0.807617C11.1875 0.807617 0 11.9951 0 25.8076C0 36.8701 7.15625 46.2139 17.0938 49.5264C18.3438 49.7451 18.8125 48.9951 18.8125 48.3389C18.8125 47.7451 18.7812 45.7764 18.7812 43.6826C12.5 44.8389 10.875 42.1514 10.375 40.7451C10.0938 40.0264 8.875 37.8076 7.8125 37.2139C6.9375 36.7451 5.6875 35.5889 7.78125 35.5576C9.75 35.5264 11.1562 37.3701 11.625 38.1201C13.875 41.9014 17.4688 40.8389 18.9062 40.1826C19.125 38.5576 19.7812 37.4639 20.5 36.8389C14.9375 36.2139 9.125 34.0576 9.125 24.4951C9.125 21.7764 10.0938 19.5264 11.6875 17.7764C11.4375 17.1514 10.5625 14.5889 11.9375 11.1514C11.9375 11.1514 14.0312 10.4951 18.8125 13.7139C20.8125 13.1514 22.9375 12.8701 25.0625 12.8701C27.1875 12.8701 29.3125 13.1514 31.3125 13.7139C36.0938 10.4639 38.1875 11.1514 38.1875 11.1514C39.5625 14.5889 38.6875 17.1514 38.4375 17.7764C40.0312 19.5264 41 21.7451 41 24.4951C41 34.0889 35.1562 36.2139 29.5938 36.8389C30.5 37.6201 31.2812 39.1201 31.2812 41.4639C31.2812 44.8076 31.25 47.4951 31.25 48.3389C31.25 48.9951 31.7188 49.7764 32.9688 49.5264C42.8438 46.2139 50 36.8389 50 25.8076C50 11.9951 38.8125 0.807617 25 0.807617Z" fill="#1B1F23"/>
</g>
<defs>
<clipPath id="clip0_778_119938">
<rect width="50" height="50" fill="white" transform="translate(0 0.807617)"/>
</clipPath>
</defs>
</svg>
