<svg width="51" height="52" viewBox="0 0 51 52" fill="none" xmlns="http://www.w3.org/2000/svg">
<g clip-path="url(#clip0_778_119937)">
<path d="M50.3398 26.4186C50.3398 24.6964 50.1732 22.9186 49.8954 21.252H25.8398V31.0853H39.6176C39.0621 34.252 37.2287 37.0297 34.5065 38.8075L42.7287 45.1964C47.5621 40.6964 50.3398 34.1408 50.3398 26.4186Z" fill="#4280EF"/>
<path d="M25.8403 51.3075C32.7292 51.3075 38.5069 49.0297 42.7292 45.1408L34.5069 38.8075C32.2292 40.3631 29.2847 41.252 25.8403 41.252C19.1736 41.252 13.5625 36.752 11.5069 30.752L3.0625 37.252C7.39583 45.8631 16.1736 51.3075 25.8403 51.3075Z" fill="#34A353"/>
<path d="M11.5063 30.6966C10.4507 27.5299 10.4507 24.0855 11.5063 20.9188L3.06185 14.3633C-0.549262 21.5855 -0.549262 30.0855 3.06185 37.2522L11.5063 30.6966Z" fill="#F6B704"/>
<path d="M25.8403 10.4187C29.4514 10.3632 33.0069 11.7521 35.6181 14.2521L42.8958 6.91873C38.2847 2.58539 32.1736 0.252055 25.8403 0.30761C16.1736 0.30761 7.39583 5.75206 3.0625 14.3632L11.5069 20.9187C13.5625 14.8632 19.1736 10.4187 25.8403 10.4187Z" fill="#E54335"/>
</g>
<defs>
<clipPath id="clip0_778_119937">
<rect width="50" height="51.1111" fill="white" transform="translate(0.339844 0.251953)"/>
</clipPath>
</defs>
</svg>
