<svg width="18" height="18" viewBox="0 0 18 18" fill="none" xmlns="http://www.w3.org/2000/svg">
<g clip-path="url(#clip0_427_798)">
<path d="M8.92823 1.80742C11.2109 1.80742 11.4813 1.81743 12.379 1.85746C13.2133 1.89416 13.6639 2.03427 13.9642 2.15103C14.3613 2.30448 14.6484 2.4913 14.9454 2.7882C15.2457 3.08844 15.4293 3.372 15.5828 3.76898C15.6996 4.06922 15.8398 4.52292 15.8765 5.35358C15.9165 6.25429 15.9265 6.52451 15.9265 8.80299C15.9265 11.0848 15.9165 11.355 15.8765 12.2524C15.8398 13.0864 15.6996 13.5368 15.5828 13.837C15.4293 14.234 15.2424 14.5209 14.9454 14.8178C14.645 15.118 14.3613 15.3015 13.9642 15.455C13.6639 15.5717 13.21 15.7118 12.379 15.7485C11.4779 15.7885 11.2076 15.7986 8.92823 15.7986C6.64553 15.7986 6.37521 15.7885 5.47747 15.7485C4.64315 15.7118 4.19262 15.5717 3.89226 15.455C3.49512 15.3015 3.20811 15.1147 2.9111 14.8178C2.61074 14.5175 2.42719 14.234 2.27367 13.837C2.15687 13.5368 2.0167 13.0831 1.97999 12.2524C1.93994 11.3517 1.92993 11.0815 1.92993 8.80299C1.92993 6.52117 1.93994 6.25096 1.97999 5.35358C2.0167 4.51958 2.15687 4.06922 2.27367 3.76898C2.42719 3.372 2.61408 3.08511 2.9111 2.7882C3.21145 2.48796 3.49512 2.30448 3.89226 2.15103C4.19262 2.03427 4.64649 1.89416 5.47747 1.85746C6.37521 1.81743 6.64553 1.80742 8.92823 1.80742ZM8.92823 0.269531C6.60882 0.269531 6.31847 0.279539 5.40739 0.319571C4.49965 0.359603 3.87557 0.506386 3.33493 0.716554C2.77093 0.936729 2.2937 1.22696 1.8198 1.70401C1.34257 2.17772 1.05222 2.65476 0.831963 3.21521C0.621713 3.75898 0.474873 4.37947 0.434825 5.28686C0.394778 6.20092 0.384766 6.49115 0.384766 8.80966C0.384766 11.1282 0.394778 11.4184 0.434825 12.3291C0.474873 13.2365 0.621713 13.8603 0.831963 14.4008C1.05222 14.9646 1.34257 15.4416 1.8198 15.9153C2.2937 16.389 2.77093 16.6826 3.33159 16.8994C3.87557 17.1096 4.49631 17.2564 5.40405 17.2964C6.31513 17.3364 6.60548 17.3465 8.9249 17.3465C11.2443 17.3465 11.5347 17.3364 12.4457 17.2964C13.3535 17.2564 13.9776 17.1096 14.5182 16.8994C15.0789 16.6826 15.5561 16.389 16.03 15.9153C16.5039 15.4416 16.7976 14.9646 17.0145 14.4041C17.2247 13.8603 17.3716 13.2399 17.4116 12.3325C17.4517 11.4217 17.4617 11.1315 17.4617 8.813C17.4617 6.49449 17.4517 6.20425 17.4116 5.29353C17.3716 4.38614 17.2247 3.76231 17.0145 3.22188C16.8042 2.65476 16.5139 2.17772 16.0367 1.70401C15.5628 1.2303 15.0855 0.936729 14.5249 0.71989C13.9809 0.509722 13.3602 0.362939 12.4524 0.322907C11.538 0.279539 11.2477 0.269531 8.92823 0.269531Z" fill="#F9F9F9"/>
<path d="M8.92353 4.53906C6.56652 4.53906 4.6543 6.45129 4.6543 8.80829C4.6543 11.1653 6.56652 13.0775 8.92353 13.0775C11.2805 13.0775 13.1928 11.1653 13.1928 8.80829C13.1928 6.45129 11.2805 4.53906 8.92353 4.53906ZM8.92353 11.5776C7.3944 11.5776 6.15421 10.3374 6.15421 8.80829C6.15421 7.27916 7.3944 6.03897 8.92353 6.03897C10.4527 6.03897 11.6928 7.27916 11.6928 8.80829C11.6928 10.3374 10.4527 11.5776 8.92353 11.5776Z" fill="#F9F9F9"/>
<path d="M14.2592 4.27118C14.2592 4.71445 13.8993 5.07166 13.4587 5.07166C13.0154 5.07166 12.6582 4.71184 12.6582 4.27118C12.6582 3.82792 13.018 3.4707 13.4587 3.4707C13.8993 3.4707 14.2592 3.83053 14.2592 4.27118Z" fill="#F9F9F9"/>
</g>
<defs>
<clipPath id="clip0_427_798">
<rect width="17.0769" height="17.0769" fill="white" transform="translate(0.384766 0.269531)"/>
</clipPath>
</defs>
</svg>
