<svg width="50" height="50" viewBox="0 0 50 50" fill="none" xmlns="http://www.w3.org/2000/svg">
<g clip-path="url(#clip0_778_119939)">
<path d="M42.488 42.008H35.2153V30.6186C35.2153 27.9027 35.1668 24.4065 31.4327 24.4065C27.6448 24.4065 27.0653 27.3656 27.0653 30.4209V42.0073H19.7925V18.5861H26.7743V21.7868H26.8721C27.5708 20.5922 28.5805 19.6094 29.7935 18.9432C31.0066 18.2769 32.3777 17.9522 33.7607 18.0035C41.1319 18.0035 42.491 22.852 42.491 29.1595L42.488 42.008ZM11.5865 15.3845C10.7518 15.3847 9.93571 15.1373 9.24162 14.6737C8.54745 14.2101 8.00639 13.5511 7.68684 12.7799C7.36724 12.0088 7.28351 11.1602 7.44622 10.3415C7.60889 9.5228 8.01071 8.77068 8.60086 8.1803C9.19101 7.58998 9.9429 7.18789 10.7616 7.0249C11.5803 6.8619 12.4289 6.94533 13.2001 7.26463C13.9714 7.58392 14.6306 8.12477 15.0945 8.81871C15.5584 9.51265 15.806 10.3286 15.8062 11.1633C15.8062 11.7176 15.6972 12.2664 15.4852 12.7785C15.2732 13.2906 14.9624 13.7559 14.5706 14.1479C14.1787 14.5398 13.7135 14.8508 13.2015 15.063C12.6895 15.2752 12.1407 15.3845 11.5865 15.3845ZM15.2228 42.008H7.94253V18.5861H15.2228V42.008ZM46.1137 0.189866H4.28799C3.33866 0.179153 2.42391 0.545771 1.74475 1.20916C1.0656 1.87254 0.677602 2.77843 0.666016 3.72774V45.727C0.677205 46.6767 1.06497 47.5833 1.74409 48.2473C2.42323 48.9114 3.33819 49.2788 4.28799 49.2686H46.1137C47.0654 49.2806 47.9829 48.9143 48.6647 48.2502C49.3465 47.5862 49.7369 46.6786 49.7501 45.727V3.72471C49.7365 2.77351 49.3459 1.86661 48.6641 1.20323C47.9822 0.539862 47.0649 0.174291 46.1137 0.186836V0.189866Z" fill="#0A66C2"/>
</g>
<defs>
<clipPath id="clip0_778_119939">
<rect width="50" height="49.2424" fill="white" transform="translate(0 0.186523)"/>
</clipPath>
</defs>
</svg>
