<svg width="50" height="51" viewBox="0 0 50 51" fill="none" xmlns="http://www.w3.org/2000/svg">
<g clip-path="url(#clip0_778_119940)">
<path fill-rule="evenodd" clip-rule="evenodd" d="M9.36907 9.70536C10.9162 10.9624 11.4966 10.8664 14.4019 10.6726L41.7914 9.02798C42.3723 9.02798 41.8893 8.44846 41.6955 8.35217L37.1467 5.06372C36.2751 4.38703 35.1139 3.61209 32.8883 3.80595L6.36706 5.74032C5.39983 5.83622 5.20665 6.31984 5.59182 6.70746L9.36907 9.70536ZM11.0135 16.0885V44.907C11.0135 46.4558 11.7875 47.0352 13.5294 46.9394L43.6305 45.1976C45.3733 45.1018 45.5675 44.0365 45.5675 42.7784V14.1532C45.5675 12.8971 45.0843 12.2197 44.0174 12.3164L12.5615 14.1532C11.4006 14.2508 11.0134 14.8315 11.0134 16.0885H11.0135ZM40.7291 17.6344C40.9221 18.5056 40.7291 19.376 39.8563 19.474L38.406 19.763V41.0386C37.1467 41.7154 35.9855 42.1023 35.0179 42.1023C33.4687 42.1023 33.0807 41.6184 31.9203 40.1687L22.4335 25.2755V39.685L25.4355 40.3624C25.4355 40.3624 25.4355 42.1023 23.0135 42.1023L16.3366 42.4897C16.1427 42.1023 16.3366 41.1361 17.0139 40.9425L18.7563 40.4596V21.4075L16.3371 21.2136C16.143 20.3424 16.6263 19.0862 17.9823 18.9887L25.1451 18.5059L35.0179 33.5928V20.2465L32.5007 19.9576C32.3075 18.8925 33.0807 18.1191 34.0487 18.0232L40.7291 17.6344ZM4.14029 3.12935L31.7266 1.09781C35.1143 0.807265 35.9859 1.00191 38.1152 2.54856L46.9211 8.73783C48.3741 9.80214 48.8584 10.0919 48.8584 11.2521V45.1976C48.8584 47.3251 48.0833 48.5832 45.3738 48.7757L13.3377 50.7103C11.3037 50.8073 10.3357 50.5174 9.27053 49.1627L2.78573 40.749C1.62385 39.2001 1.14062 38.0415 1.14062 36.686V6.51291C1.14062 4.77318 1.91586 3.32194 4.14029 3.12935Z" fill="black"/>
</g>
<defs>
<clipPath id="clip0_778_119940">
<rect width="50" height="50" fill="white" transform="translate(0 0.807617)"/>
</clipPath>
</defs>
</svg>
