<svg width="51" height="60" viewBox="0 0 51 60" fill="none" xmlns="http://www.w3.org/2000/svg">
<g clip-path="url(#clip0_778_119941)">
<path d="M14.3136 56.0659L15.3193 49.6774L13.0789 49.6255H2.38086L9.81548 2.48511C9.83855 2.3428 9.91355 2.21011 10.0232 2.11588C10.1328 2.02165 10.2732 1.96973 10.4193 1.96973H28.4578C34.4463 1.96973 38.579 3.21588 40.7367 5.6755C41.7482 6.82934 42.3925 8.03511 42.704 9.36203C43.0309 10.7543 43.0367 12.4178 42.7175 14.4466L42.6944 14.5947V15.8947L43.7059 16.4678C44.5578 16.9197 45.2348 17.437 45.754 18.0293C46.6194 19.0159 47.179 20.2697 47.4155 21.7562C47.6598 23.2851 47.579 25.1043 47.179 27.1639C46.7175 29.5332 45.9713 31.5966 44.9636 33.2851C44.0367 34.8409 42.8559 36.1312 41.454 37.1312C40.1155 38.0812 38.5251 38.8024 36.7271 39.2639C34.9848 39.7178 32.9982 39.9466 30.8194 39.9466H29.4155C28.4117 39.9466 27.4367 40.3082 26.6713 40.9562C25.904 41.6178 25.3963 42.5216 25.2405 43.5101L25.1348 44.0851L23.3578 55.3447L23.2771 55.7582C23.2559 55.8889 23.2194 55.9543 23.1655 55.9986C23.1175 56.0389 23.0482 56.0659 22.9809 56.0659H14.3136Z" fill="#253B80"/>
<path d="M44.6626 14.7441C44.6088 15.0884 44.5472 15.4403 44.478 15.8018C42.0992 28.0153 33.9607 32.2345 23.5665 32.2345H18.2742C17.0031 32.2345 15.9319 33.1576 15.7338 34.4115L13.0242 51.5961L12.2569 56.4672C12.1281 57.2903 12.7627 58.0326 13.5934 58.0326H22.9799C24.0915 58.0326 25.0357 57.2249 25.2107 56.1288L25.303 55.6518L27.0703 44.4365L27.1838 43.8211C27.3569 42.7211 28.303 41.9134 29.4146 41.9134H30.8184C39.9126 41.9134 47.0319 38.2211 49.1126 27.5365C49.9819 23.073 49.5319 19.3461 47.2319 16.7249C46.5357 15.9345 45.6722 15.2788 44.6626 14.7441Z" fill="#179BD7"/>
<path d="M42.1748 13.7523C41.8113 13.6465 41.4363 13.5504 41.0517 13.4638C40.6651 13.3792 40.269 13.3042 39.8613 13.2388C38.4344 13.0081 36.8709 12.8984 35.1959 12.8984H21.0575C20.7094 12.8984 20.3786 12.9773 20.0825 13.1196C19.4305 13.4331 18.9459 14.0504 18.8286 14.8061L15.8209 33.8561L15.7344 34.4118C15.9325 33.158 17.0036 32.2349 18.2748 32.2349H23.5671C33.9613 32.2349 42.0998 28.0138 44.4786 15.8023C44.5498 15.4407 44.6094 15.0888 44.6632 14.7446C44.0613 14.4254 43.4094 14.1523 42.7075 13.9196C42.5344 13.8619 42.3555 13.8061 42.1748 13.7523Z" fill="#222D65"/>
<path d="M18.8283 14.8058C18.9456 14.05 19.4302 13.4327 20.0822 13.1212C20.3802 12.9788 20.7091 12.9 21.0572 12.9H35.1956C36.8706 12.9 38.4341 13.0096 39.861 13.2404C40.2687 13.3058 40.6648 13.3808 41.0514 13.4654C41.436 13.5519 41.811 13.6481 42.1745 13.7538C42.3552 13.8077 42.5341 13.8635 42.7091 13.9192C43.411 14.1519 44.0629 14.4269 44.6648 14.7442C45.3725 10.2308 44.6591 7.15769 42.2187 4.375C39.5283 1.31154 34.6725 0 28.4591 0H10.4206C9.15136 0 8.06867 0.923077 7.87252 2.17885L0.359053 49.8038C0.210976 50.7462 0.9379 51.5962 1.8879 51.5962H13.0244L15.8206 33.8558L18.8283 14.8058Z" fill="#253B80"/>
</g>
<defs>
<clipPath id="clip0_778_119941">
<rect width="50" height="59.6154" fill="white" transform="translate(0.339844)"/>
</clipPath>
</defs>
</svg>
