<svg width="18" height="18" viewBox="0 0 18 18" fill="none" xmlns="http://www.w3.org/2000/svg">
<g clip-path="url(#clip0_427_797)">
<path d="M13.4632 8.18436C13.3884 8.1491 13.3124 8.11517 13.2354 8.08268C13.1014 5.65394 11.7516 4.26349 9.48529 4.24925C9.47502 4.24919 9.46481 4.24919 9.45454 4.24919C8.09896 4.24919 6.97155 4.81812 6.27763 5.85339L7.52406 6.69408C8.04244 5.92077 8.85599 5.75592 9.45514 5.75592C9.46206 5.75592 9.469 5.75592 9.47585 5.75598C10.2221 5.76066 10.7852 5.97399 11.1496 6.39001C11.4149 6.69288 11.5923 7.11142 11.6801 7.63963C11.0185 7.52907 10.3029 7.49507 9.53803 7.53819C7.38328 7.66023 5.99804 8.89586 6.09107 10.6128C6.13828 11.4837 6.57956 12.233 7.33356 12.7224C7.97105 13.1362 8.79211 13.3385 9.64543 13.2927C10.7723 13.232 11.6564 12.8092 12.2731 12.0362C12.7415 11.4492 13.0378 10.6885 13.1686 9.72997C13.7056 10.0486 14.1037 10.468 14.3235 10.9721C14.6972 11.8291 14.719 13.2373 13.5504 14.3854C12.5265 15.3911 11.2957 15.8263 9.43568 15.8397C7.37238 15.8247 5.81193 15.174 4.79738 13.9059C3.84733 12.7184 3.35634 11.0033 3.33802 8.80799C3.35634 6.6127 3.84733 4.89752 4.79738 3.71006C5.81193 2.44194 7.37235 1.79133 9.43565 1.77626C11.5139 1.79145 13.1016 2.44518 14.1549 3.71943C14.6715 4.3443 15.0609 5.13012 15.3176 6.04636L16.7782 5.66319C16.4671 4.5354 15.9774 3.56357 15.3111 2.7576C13.9606 1.12397 11.9856 0.286888 9.44074 0.269531H9.43056C6.89091 0.286828 4.93795 1.1271 3.62596 2.76697C2.45846 4.22625 1.85624 6.25675 1.836 8.80199L1.83594 8.80799L1.836 8.814C1.85624 11.3592 2.45846 13.3898 3.62596 14.849C4.93795 16.4889 6.89091 17.3292 9.43056 17.3465H9.44074C11.6986 17.3311 13.2902 16.7498 14.6013 15.4619C16.3166 13.7768 16.265 11.6647 15.6996 10.3681C15.294 9.43833 14.5207 8.68314 13.4632 8.18436ZM9.56476 11.7882C8.62038 11.8405 7.63925 11.4237 7.59088 10.531C7.55502 9.86907 8.06996 9.1305 9.62272 9.04252C9.80054 9.03243 9.97504 9.0275 10.1465 9.0275C10.7105 9.0275 11.2381 9.08138 11.7178 9.18449C11.5389 11.3815 10.4894 11.7383 9.56476 11.7882Z" fill="#F9F9F9"/>
</g>
<defs>
<clipPath id="clip0_427_797">
<rect width="17.0769" height="17.0769" fill="white" transform="translate(0.769531 0.269531)"/>
</clipPath>
</defs>
</svg>
