<svg width="50" height="51" viewBox="0 0 50 51" fill="none" xmlns="http://www.w3.org/2000/svg">
<g clip-path="url(#clip0_778_119841)">
<path d="M42.8571 0.807617H7.14286C3.19797 0.807617 0 4.00558 0 7.95047V43.6648C0 47.6097 3.19797 50.8076 7.14286 50.8076H42.8571C46.802 50.8076 50 47.6097 50 43.6648V7.95047C50 4.00558 46.802 0.807617 42.8571 0.807617Z" fill="#3A48FF"/>
<path d="M32.2313 21.4859C32.2313 21.4859 29.8206 29.0573 29.6242 29.6823C29.5527 29.0395 27.7849 15.4502 27.7849 15.4502C23.6777 15.4502 21.4813 18.3788 20.3206 21.4681C20.3206 21.4681 17.392 29.0573 17.142 29.7002C17.1242 29.1109 16.6956 21.5573 16.6956 21.5573C16.4456 17.7716 12.9813 15.4681 10.1777 15.4681L13.5706 36.0573C17.8742 36.0395 20.1956 33.1288 21.4099 30.0395C21.4099 30.0395 23.9992 23.3431 24.1063 23.0395C24.1242 23.3252 25.9634 36.0573 25.9634 36.0573C30.2849 36.0573 32.6063 33.3252 33.8563 30.3431L39.9099 15.4681C35.642 15.4681 33.392 18.3788 32.2313 21.4859Z" fill="white"/>
</g>
<defs>
<clipPath id="clip0_778_119841">
<rect width="50" height="50" fill="white" transform="translate(0 0.807617)"/>
</clipPath>
</defs>
</svg>
